<?xml version="1.0" standalone="no"?><!DOCTYPE svg PUBLIC "-//W3C//DTD SVG 1.1//EN" "http://www.w3.org/Graphics/SVG/1.1/DTD/svg11.dtd"><svg t="1580802626463" class="icon" viewBox="0 0 1024 1024" version="1.1" xmlns="http://www.w3.org/2000/svg" p-id="2075" xmlns:xlink="http://www.w3.org/1999/xlink" width="200" height="200"><defs><style type="text/css"></style></defs><path d="M512 0C229.6832 0 0 229.6832 0 512s229.6832 512 512 512 512-229.6832 512-512S794.3168 0 512 0zM68.266667 512c0-107.008 38.075733-205.294933 101.393066-282.0096 6.638933 7.424 12.0832 17.220267 14.592 30.2592 5.341867 27.921067-14.199467 119.6032 10.666667 139.741867 37.956267 30.737067 96.699733 4.898133 126.941867 23.466666 30.583467 18.773333 106.8544 106.3424 136.635733 88.541867 50.039467-29.883733-35.754667-147.968-39.441067-179.899733-5.461333-47.325867 24.405333-102.792533 78.882134-82.6368 34.2016 12.6464 41.3184 58.231467 73.2672 60.1088 31.931733 1.877333 17.015467-98.423467 16.896-114.5856-0.341333-45.2608 44.253867-77.448533 91.716266-93.678934C841.506133 167.6288 955.733333 326.673067 955.733333 512c0 74.325333-18.466133 144.401067-50.909866 206.011733-3.720533-39.7312-13.380267-83.950933-37.563734-97.501866-46.9504-26.282667-99.208533-1.143467-137.1136-43.195734-15.6672-17.373867 4.0448-95.0272-43.144533-113.681066-91.733333-36.266667-166.058667 38.5536-188.603733 98.6624-9.4208 25.1392-12.6976 55.876267-8.226134 85.8624 0.9216 96.3584-48.930133 96.4096-30.020266 135.0656 20.718933 42.325333 94.788267 27.306667 80.366933 115.9168a59.050667 59.050667 0 0 1-17.988267 34.0992 557.226667 557.226667 0 0 1-26.282666 16.384 124.142933 124.142933 0 0 1-15.240534 4.898133C250.760533 938.564267 68.266667 746.257067 68.266667 512z" fill="#040000" p-id="2076"></path></svg>