<?xml version="1.0" standalone="no"?><!DOCTYPE svg PUBLIC "-//W3C//DTD SVG 1.1//EN" "http://www.w3.org/Graphics/SVG/1.1/DTD/svg11.dtd"><svg t="1580803151406" class="icon" viewBox="0 0 1024 1024" version="1.1" xmlns="http://www.w3.org/2000/svg" p-id="16665" xmlns:xlink="http://www.w3.org/1999/xlink" width="200" height="200"><defs><style type="text/css"></style></defs><path d="M890.41 75.093H316.938c-32.555 0-59.043 26.28-59.043 58.573v122.252H134.682c-32.56 0-59.043 26.28-59.043 58.578v575.832c0 32.299 26.482 58.579 59.043 58.579h573.467c32.55 0 59.043-26.28 59.043-58.579V768.076H890.41c32.555 0 59.043-26.274 59.043-58.578V133.666c0-32.293-26.488-58.573-59.043-58.573zM701.59 883.818H141.241V321.001h560.35v562.817z m182.261-180.824h-116.66V314.496c0-32.298-26.492-58.578-59.042-58.578H323.502V140.176h560.35v562.818z" p-id="16666" fill="#000000"></path></svg>