<?xml version="1.0" standalone="no"?><!DOCTYPE svg PUBLIC "-//W3C//DTD SVG 1.1//EN" "http://www.w3.org/Graphics/SVG/1.1/DTD/svg11.dtd"><svg t="1580802657628" class="icon" viewBox="0 0 1024 1024" version="1.1" xmlns="http://www.w3.org/2000/svg" p-id="2815" xmlns:xlink="http://www.w3.org/1999/xlink" width="200" height="200"><defs><style type="text/css"></style></defs><path d="M879.612973 868.280849 879.612973 868.280849C682.494596 1071.351177 358.401265 1076.471135 155.650935 879.736755S-51.515359 358.845045 145.603017 155.774717 666.878725-52.479568 869.565055 144.254812l-59.45551 61.311495c-168.958609-163.96665-439.036384-159.678685-603.323031 9.535921-164.286647 169.214606-160.510678 439.292382 8.44793 603.323031 168.894609 163.96665 439.036384 159.678685 603.259032-9.535921L879.612973 868.280849 879.612973 868.280849zM879.676972 868.21685c-16.447865 16.895861-43.455642 17.343857-60.351503 0.895993-16.831861-16.383865-17.215858-43.391643-0.831993-60.287504 16.447865-16.95986 43.455642-17.407857 60.351503-1.023992C895.74084 824.249212 896.060837 851.320989 879.676972 868.21685L879.676972 868.21685zM1023.355789 353.021093l-332.221264-24.895795 297.405551-306.429476L1023.355789 353.021093 1023.355789 353.021093z" p-id="2816"></path></svg>