<?xml version="1.0" standalone="no"?><!DOCTYPE svg PUBLIC "-//W3C//DTD SVG 1.1//EN" "http://www.w3.org/Graphics/SVG/1.1/DTD/svg11.dtd"><svg t="1580802898261" class="icon" viewBox="0 0 1024 1024" version="1.1" xmlns="http://www.w3.org/2000/svg" p-id="10302" xmlns:xlink="http://www.w3.org/1999/xlink" width="200" height="200"><defs><style type="text/css"></style></defs><path d="M512 0C230.4 0 0 230.4 0 512 0 793.6 230.4 1024 512 1024c281.6 0 512-230.4 512-512C1024 230.4 793.6 0 512 0zM241.595733 851.217067c0 0 156.808533-28.808533 156.808533-128 0-28.808533 22.391467-44.782933 0-64.034133C379.221333 640 366.3872 595.217067 356.829867 553.5744 353.621333 531.182933 315.1872 531.182933 315.1872 489.608533c-22.391467-22.391467 0-60.8256 0-86.4256 0-64.034133-3.208533-131.208533 22.391467-169.5744 89.634133-124.791467 259.208533-128 342.4256 0 28.808533 41.5744 22.391467 105.608533 22.391467 169.5744 0 28.808533 19.182933 63.965867 0 86.4256 0 41.5744-38.434133 47.991467-41.5744 64.034133C654.404267 592.008533 635.221333 640 619.178667 659.182933c-12.834133 15.9744 0 35.2256 0 64.034133 0 99.191467 160.017067 124.791467 163.2256 124.791467C782.404267 848.008533 512 990.4128 241.595733 851.217067z" p-id="10303"></path></svg>